<?xml version="1.0" encoding="utf-8"?>
<!-- Generator: Adobe Illustrator 26.0.1, SVG Export Plug-In . SVG Version: 6.00 Build 0)  -->
<svg version="1.1" id="Layer_1" xmlns="http://www.w3.org/2000/svg" xmlns:xlink="http://www.w3.org/1999/xlink" x="0px" y="0px"
	 viewBox="0 0 1080 507.16" style="enable-background:new 0 0 1080 507.16;" xml:space="preserve">
<style type="text/css">
	.st0{fill:#1A4330;}
	.st1{fill:#F7932D;}
	.st2{fill:#D93927;}
</style>
<g>
	<g>
		<path class="st0" d="M904.43,305.83c-0.22-0.04-0.25-0.09-0.37-0.46c-0.21-0.69-0.32-1.27-0.38-1.49
			c-0.03-0.16-0.03-0.23,0.04-0.26c0.08-0.03,0.11,0.01,0.14,0.12c0.04,0.13,0.1,0.32,0.2,0.5c0.52,0.96,1.55,1.08,2.48,0.79
			c1.33-0.4,1.7-1.56,1.43-2.45c-0.29-0.96-0.86-1.39-2.36-2.01l-0.78-0.32c-1.84-0.76-2.43-1.52-2.72-2.47
			c-0.45-1.49,0.35-2.84,2.12-3.37c0.54-0.17,0.96-0.23,1.33-0.25c0.28-0.02,0.4-0.04,0.51-0.08c0.11-0.03,0.15-0.01,0.17,0.05
			c0.02,0.07,0.11,0.54,0.39,1.49c0.07,0.22,0.07,0.33,0,0.35c-0.08,0.03-0.12-0.04-0.17-0.15c-0.06-0.16-0.26-0.51-0.39-0.64
			c-0.13-0.13-0.68-0.6-1.96-0.21c-0.96,0.29-1.53,1.11-1.22,2.13c0.24,0.79,0.75,1.18,2.4,1.82l0.48,0.19
			c2.03,0.8,2.68,1.54,3.02,2.65c0.17,0.57,0.27,1.69-0.48,2.66c-0.47,0.6-1.17,0.99-1.92,1.22
			C905.76,305.84,905.09,305.93,904.43,305.83z"/>
		<path class="st0" d="M916.64,298.69c0.24,1.37,0.43,2.5,0.61,3.09c0.11,0.41,0.25,0.71,0.69,0.69c0.21-0.01,0.52-0.03,0.65-0.05
			c0.09-0.01,0.12,0.02,0.13,0.07c0.01,0.07-0.05,0.13-0.21,0.15c-0.79,0.14-1.7,0.25-1.77,0.26c-0.07,0.01-0.97,0.21-1.39,0.29
			c-0.16,0.03-0.23,0.01-0.25-0.07c-0.01-0.04,0.01-0.09,0.1-0.11c0.13-0.02,0.29-0.08,0.42-0.13c0.28-0.11,0.29-0.43,0.28-0.86
			c-0.03-0.61-0.23-1.74-0.47-3.12l-1.05-6.05c-0.7,0.14-1.41,0.26-2.11,0.4c-0.88,0.17-1.21,0.33-1.38,0.71
			c-0.12,0.27-0.14,0.38-0.17,0.49c-0.02,0.12-0.06,0.16-0.12,0.17c-0.04,0.01-0.08-0.03-0.09-0.12c-0.02-0.14,0.05-1.42,0.06-1.54
			c0.01-0.09,0.04-0.29,0.1-0.3c0.1-0.02,0.27,0.1,0.66,0.06c0.42-0.03,0.97-0.1,1.14-0.13l5.36-0.93c0.46-0.08,0.78-0.17,1-0.25
			c0.21-0.07,0.33-0.13,0.39-0.14c0.07-0.01,0.09,0.07,0.1,0.16c0.07,0.43,0.2,1.42,0.23,1.58c0.02,0.13-0.01,0.19-0.07,0.2
			c-0.07,0.01-0.11-0.02-0.16-0.22c-0.01-0.06-0.03-0.1-0.04-0.16c-0.12-0.42-0.52-0.69-1.89-0.48c-0.6,0.09-1.2,0.19-1.81,0.28
			L916.64,298.69z"/>
		<path class="st0" d="M925.12,295.12c-0.07-2.26-0.08-2.67-0.12-3.13c-0.04-0.49-0.17-0.72-0.65-0.81
			c-0.12-0.02-0.36-0.03-0.49-0.03c-0.06,0-0.12-0.03-0.12-0.08c0-0.09,0.07-0.12,0.23-0.12c0.65-0.02,1.57,0,1.64-0.01
			c0.16-0.01,1.26-0.08,1.71-0.1c0.91-0.03,1.89,0.03,2.67,0.56c0.37,0.25,1.03,0.94,1.06,1.94c0.03,1.07-0.39,2.16-1.65,3.4
			c1.23,1.49,2.26,2.75,3.13,3.62c0.81,0.8,1.44,0.94,1.8,0.99c0.28,0.03,0.48,0.03,0.57,0.03c0.07,0,0.13,0.04,0.13,0.08
			c0,0.09-0.08,0.12-0.34,0.13l-1.03,0.03c-0.81,0.02-1.18-0.04-1.56-0.23c-0.63-0.31-1.16-1.01-2.02-2.07
			c-0.63-0.78-1.34-1.73-1.65-2.1c-0.06-0.06-0.1-0.08-0.19-0.08l-1.79,0.02c-0.07,0-0.1,0.05-0.1,0.12l0.01,0.35
			c0.04,1.39,0.08,2.54,0.17,3.14c0.06,0.42,0.15,0.74,0.59,0.78c0.2,0.02,0.52,0.04,0.65,0.04c0.09,0,0.12,0.04,0.12,0.08
			c0,0.07-0.07,0.12-0.23,0.12c-0.8,0.02-1.71,0.01-1.78,0.01c-0.01,0-0.93,0.07-1.36,0.08c-0.16,0.01-0.23-0.02-0.24-0.11
			c0-0.04,0.03-0.09,0.11-0.09c0.13,0,0.3-0.04,0.43-0.07c0.29-0.07,0.35-0.39,0.4-0.81c0.05-0.61,0.02-1.76-0.02-3.15
			L925.12,295.12z M926.32,296.34c0,0.07,0.03,0.13,0.11,0.17c0.22,0.12,0.89,0.2,1.53,0.19c0.35-0.01,0.75-0.07,1.08-0.31
			c0.5-0.36,0.85-1.16,0.82-2.26c-0.05-1.81-1.04-2.87-2.6-2.82c-0.43,0.01-0.83,0.07-0.97,0.12c-0.07,0.03-0.11,0.09-0.11,0.18
			L926.32,296.34z"/>
		<path class="st0" d="M938.07,295.27c0.23-2.25,0.27-2.66,0.29-3.12c0.02-0.49-0.07-0.74-0.54-0.89c-0.1-0.04-0.29-0.06-0.41-0.09
			c-0.1-0.03-0.18-0.05-0.18-0.11c0.01-0.09,0.08-0.11,0.24-0.09c0.33,0.03,0.72,0.07,1.63,0.21c0.1,0.01,2.97,0.31,3.31,0.33
			c0.32,0.02,0.58,0.02,0.67-0.02c0.09-0.03,0.12-0.05,0.16-0.04c0.04,0,0.05,0.06,0.04,0.14c-0.01,0.1-0.12,0.27-0.19,0.67
			c-0.04,0.21-0.08,0.49-0.15,0.86c-0.03,0.14-0.08,0.24-0.14,0.23c-0.09-0.01-0.11-0.08-0.1-0.2c0.02-0.19,0.01-0.36-0.02-0.48
			c-0.07-0.34-0.36-0.52-0.98-0.64c-0.24-0.05-1.81-0.23-1.97-0.25c-0.06-0.01-0.09,0.03-0.1,0.14l-0.41,3.98
			c-0.01,0.1,0,0.15,0.07,0.15c0.19,0.02,1.96,0.2,2.3,0.21c0.39,0.01,0.59-0.01,0.75-0.17c0.08-0.08,0.13-0.13,0.19-0.13
			c0.04,0.01,0.07,0.04,0.06,0.12c-0.01,0.09-0.11,0.32-0.2,0.8c-0.09,0.44-0.12,0.78-0.16,0.98c-0.03,0.14-0.07,0.21-0.12,0.21
			c-0.09-0.01-0.09-0.13-0.08-0.24c0.01-0.13,0.01-0.27-0.02-0.41c-0.03-0.22-0.19-0.44-0.7-0.55c-0.38-0.08-1.81-0.26-2.06-0.29
			c-0.07-0.01-0.11,0.03-0.11,0.09l-0.13,1.27c-0.05,0.49-0.24,2.16-0.26,2.47c-0.03,0.6,0.02,0.92,0.37,1.1
			c0.23,0.13,0.62,0.2,1.18,0.25c0.43,0.04,0.91,0.08,1.31,0c0.48-0.1,0.67-0.38,0.85-0.99c0.04-0.16,0.08-0.21,0.15-0.2
			c0.09,0.01,0.07,0.12,0.06,0.23c-0.01,0.12-0.23,1.09-0.33,1.38c-0.14,0.37-0.25,0.35-0.82,0.29c-1.07-0.11-1.54-0.19-2.1-0.26
			c-0.58-0.07-1.24-0.17-1.8-0.23c-0.35-0.04-0.7-0.01-1.07-0.07c-0.16-0.02-0.23-0.05-0.22-0.14c0-0.04,0.08-0.07,0.17-0.07
			c0.15,0,0.23,0.01,0.34-0.01c0.31-0.04,0.52-0.22,0.66-1.3c0.07-0.56,0.16-1.3,0.3-2.58L938.07,295.27z"/>
		<path class="st0" d="M948.44,296.75c0.5-2.21,0.58-2.61,0.66-3.07c0.08-0.49,0.02-0.74-0.43-0.94c-0.09-0.05-0.28-0.09-0.4-0.13
			c-0.1-0.04-0.18-0.07-0.17-0.13c0.02-0.09,0.1-0.1,0.25-0.06c0.33,0.07,0.71,0.16,1.59,0.4c0.1,0.02,2.92,0.65,3.25,0.71
			c0.31,0.06,0.58,0.08,0.67,0.06c0.09-0.02,0.13-0.03,0.17-0.02c0.04,0.01,0.04,0.07,0.03,0.14c-0.02,0.1-0.15,0.25-0.26,0.64
			c-0.06,0.21-0.14,0.47-0.25,0.84c-0.05,0.14-0.11,0.23-0.17,0.22c-0.08-0.02-0.1-0.1-0.07-0.21c0.04-0.18,0.05-0.36,0.03-0.48
			c-0.03-0.35-0.29-0.56-0.9-0.75c-0.23-0.08-1.77-0.44-1.93-0.48c-0.06-0.01-0.09,0.02-0.12,0.12l-0.88,3.91
			c-0.02,0.1-0.02,0.15,0.05,0.16c0.18,0.04,1.93,0.43,2.26,0.48c0.39,0.06,0.58,0.06,0.76-0.08c0.09-0.07,0.14-0.12,0.2-0.1
			c0.04,0.01,0.06,0.04,0.05,0.13c-0.02,0.09-0.14,0.31-0.29,0.77c-0.14,0.43-0.21,0.76-0.27,0.95c-0.05,0.14-0.09,0.2-0.15,0.19
			c-0.08-0.02-0.07-0.14-0.05-0.25c0.03-0.13,0.05-0.27,0.03-0.41c-0.01-0.22-0.13-0.46-0.63-0.63c-0.37-0.13-1.77-0.47-2.01-0.53
			c-0.07-0.01-0.11,0.02-0.12,0.08l-0.28,1.25c-0.11,0.48-0.49,2.12-0.54,2.42c-0.1,0.59-0.09,0.92,0.24,1.14
			c0.22,0.15,0.59,0.27,1.15,0.39c0.43,0.1,0.89,0.19,1.3,0.16c0.48-0.04,0.71-0.3,0.96-0.88c0.06-0.15,0.1-0.2,0.18-0.18
			c0.08,0.02,0.06,0.13,0.04,0.23c-0.02,0.11-0.35,1.05-0.49,1.33c-0.18,0.35-0.3,0.32-0.85,0.2c-1.05-0.23-1.51-0.37-2.06-0.5
			c-0.56-0.14-1.21-0.32-1.76-0.44c-0.34-0.08-0.69-0.1-1.06-0.19c-0.16-0.04-0.22-0.08-0.2-0.17c0.01-0.04,0.09-0.05,0.17-0.05
			c0.15,0.02,0.23,0.04,0.34,0.03c0.31,0,0.54-0.16,0.81-1.22c0.14-0.55,0.31-1.27,0.6-2.53L948.44,296.75z"/>
		<path class="st0" d="M960.95,302.97c-0.47,1.31-0.87,2.39-1.01,2.99c-0.1,0.41-0.13,0.74,0.26,0.94c0.18,0.1,0.47,0.23,0.6,0.28
			c0.08,0.03,0.09,0.08,0.08,0.12c-0.02,0.07-0.11,0.08-0.26,0.03c-0.75-0.27-1.6-0.63-1.66-0.65c-0.07-0.02-0.94-0.3-1.35-0.44
			c-0.15-0.05-0.21-0.11-0.18-0.19c0.01-0.04,0.06-0.07,0.14-0.04c0.12,0.04,0.3,0.08,0.43,0.09c0.29,0.04,0.47-0.23,0.67-0.61
			c0.28-0.55,0.67-1.63,1.14-2.94l2.09-5.77c-0.67-0.23-1.36-0.48-2.03-0.7c-0.85-0.29-1.21-0.32-1.55-0.07
			c-0.23,0.18-0.31,0.26-0.39,0.34c-0.08,0.09-0.13,0.11-0.19,0.09c-0.04-0.01-0.05-0.07-0.02-0.15c0.05-0.14,0.75-1.21,0.81-1.31
			c0.06-0.07,0.18-0.23,0.23-0.21c0.1,0.03,0.18,0.22,0.54,0.38c0.38,0.18,0.89,0.4,1.05,0.46l5.12,1.85
			c0.44,0.16,0.76,0.24,0.99,0.28c0.22,0.05,0.35,0.05,0.41,0.07c0.07,0.02,0.04,0.11,0.01,0.19c-0.15,0.41-0.53,1.34-0.59,1.49
			c-0.04,0.12-0.11,0.16-0.16,0.14c-0.07-0.02-0.08-0.08-0.02-0.27c0.02-0.05,0.02-0.1,0.04-0.15c0.11-0.42-0.11-0.86-1.41-1.36
			c-0.57-0.22-1.14-0.43-1.71-0.65L960.95,302.97z"/>
		<path class="st0" d="M975.73,307.14c1.18-1.93,1.39-2.28,1.61-2.69c0.23-0.44,0.25-0.69-0.1-1.03c-0.07-0.06-0.19-0.13-0.29-0.21
			c-0.1-0.08-0.2-0.15-0.16-0.21c0.04-0.07,0.12-0.06,0.26,0.02c0.48,0.29,0.93,0.62,1.38,0.89c0.25,0.15,2.76,1.69,3.05,1.85
			s0.52,0.3,0.65,0.3c0.05,0,0.12,0,0.14,0.01c0.05,0.03,0.04,0.1,0.01,0.16s-0.19,0.21-0.31,0.34c-0.27,0.33-0.39,0.53-0.63,0.86
			c-0.09,0.15-0.21,0.21-0.26,0.18c-0.06-0.04-0.04-0.09,0.01-0.21c0.09-0.18,0.22-0.51,0.14-0.76c-0.07-0.22-0.24-0.45-0.59-0.68
			c-0.62-0.4-1.25-0.8-1.87-1.19c-0.07-0.04-0.13-0.03-0.19,0.07l-2.09,3.42c-0.04,0.07-0.06,0.12,0.02,0.16
			c0.51,0.31,1.21,0.74,1.73,1.04c0.66,0.39,0.83,0.47,1.13,0.37c0.11-0.04,0.16-0.07,0.21-0.04c0.05,0.03,0.04,0.07,0,0.14
			c-0.04,0.07-0.24,0.25-0.52,0.63c-0.26,0.35-0.44,0.65-0.57,0.82c-0.1,0.13-0.15,0.2-0.22,0.16c-0.07-0.04-0.03-0.14,0.03-0.27
			c0.14-0.29,0.37-0.74-0.22-1.22c-0.29-0.22-1.64-1.05-1.85-1.18c-0.06-0.04-0.1-0.03-0.15,0.06l-0.64,1.05
			c-0.64,1.05-1.18,1.93-1.49,2.52c-0.3,0.58-0.33,0.94-0.02,1.18c0.15,0.12,0.35,0.26,0.48,0.36c0.1,0.08,0.13,0.13,0.1,0.18
			c-0.04,0.06-0.12,0.05-0.25-0.03c-0.69-0.42-1.44-0.93-1.5-0.97l-0.11-0.07c-0.26-0.14-0.83-0.45-1.12-0.64
			c-0.14-0.08-0.18-0.15-0.14-0.22c0.02-0.04,0.06-0.05,0.18,0.01c0.13,0.06,0.25,0.12,0.35,0.15c0.31,0.08,0.51-0.05,0.87-0.57
			c0.36-0.51,0.9-1.37,1.61-2.53L975.73,307.14z"/>
		<path class="st0" d="M982.56,312.91c1.51-1.81,4.95-3.26,8.03-0.7c2.51,2.09,3.06,5.23,0.89,7.83c-2.08,2.5-5.56,3.09-8.25,0.85
			C980.18,318.35,980.89,314.91,982.56,312.91z M990.15,319.46c2.23-2.67,1.8-5.47,0.04-6.94c-1.86-1.55-4.28-1.49-6.31,0.95
			c-2.17,2.6-2,5.57,0.01,7.24C984.89,321.56,987.45,322.71,990.15,319.46z"/>
		<path class="st0" d="M994.13,322.99c1.8-1.51,5.44-2.35,8.02,0.71c2.11,2.5,2.1,5.69-0.48,7.87c-2.48,2.1-6.02,2.07-8.27-0.6
			C990.83,327.93,992.13,324.68,994.13,322.99z M1000.46,330.77c2.66-2.24,2.73-5.07,1.25-6.82c-1.56-1.85-3.95-2.21-6.38-0.16
			c-2.58,2.18-2.94,5.13-1.26,7.13C994.91,331.92,997.23,333.49,1000.46,330.77z"/>
		<path class="st0" d="M1005.51,335.47c1.95-1.15,2.3-1.35,2.69-1.61c0.41-0.28,0.57-0.45,0.42-0.92c-0.03-0.12-0.15-0.34-0.21-0.45
			c-0.05-0.09-0.06-0.15-0.01-0.18c0.08-0.04,0.14,0,0.22,0.14c0.33,0.56,0.76,1.37,0.79,1.44c0.09,0.15,0.59,0.92,1.03,1.67
			c0.73,1.24,2.19,3.46,1.52,5.86c-0.28,1.01-0.98,2.21-2.47,3.08c-1.58,0.93-3.17,0.99-4.32,0.72c-0.88-0.21-2.42-0.82-3.67-2.95
			c-0.32-0.54-0.67-1.22-0.95-1.78c-0.29-0.57-0.5-1.02-0.53-1.08c-0.01-0.02-0.14-0.24-0.31-0.49c-0.15-0.25-0.34-0.52-0.45-0.71
			c-0.08-0.14-0.09-0.21-0.02-0.26c0.04-0.02,0.09-0.02,0.15,0.08c0.09,0.13,0.17,0.22,0.26,0.32c0.2,0.22,0.51,0.12,0.9-0.04
			c0.56-0.25,1.55-0.83,2.75-1.53L1005.51,335.47z M1004.78,337.31c-1.33,0.78-2.47,1.47-2.7,1.62c-0.31,0.2-0.79,0.51-0.87,0.7
			c-0.14,0.3-0.12,0.95,0.75,2.42c0.68,1.16,1.74,1.99,2.91,2.29c1.02,0.28,2.43-0.08,3.58-0.76c1.59-0.93,2.21-2.22,2.45-3.05
			c0.55-1.9-0.12-3.43-0.99-4.92c-0.15-0.25-0.46-0.69-0.57-0.76c-0.12-0.08-0.2-0.08-0.34,0c-0.43,0.24-1.71,0.99-2.67,1.55
			L1004.78,337.31z"/>
		<path class="st0" d="M1013.44,353.92c2.26-0.66,5.93,0.05,7.05,3.9c0.92,3.14-0.38,6.05-3.62,7c-3.12,0.91-6.34-0.53-7.33-3.89
			C1008.43,357.11,1010.94,354.65,1013.44,353.92z M1016.09,363.6c3.34-0.98,4.55-3.54,3.9-5.74c-0.68-2.33-2.72-3.62-5.77-2.73
			c-3.25,0.95-4.77,3.51-4.03,6.02C1010.56,362.4,1012.04,364.78,1016.09,363.6z"/>
		<path class="st0" d="M1018.71,369.83c2.24-0.32,2.64-0.37,3.1-0.47c0.48-0.1,0.7-0.24,0.73-0.73c0-0.09-0.02-0.23-0.02-0.36
			c0-0.13-0.01-0.25,0.07-0.26c0.09-0.01,0.13,0.06,0.15,0.21c0.08,0.56,0.11,1.11,0.19,1.63c0.04,0.29,0.45,3.21,0.51,3.53
			c0.06,0.33,0.1,0.59,0.19,0.69c0.03,0.04,0.07,0.09,0.08,0.12c0.01,0.06-0.04,0.09-0.12,0.1c-0.07,0.01-0.28-0.02-0.46-0.03
			c-0.43,0-0.65,0.03-1.06,0.06c-0.17,0.03-0.3-0.03-0.31-0.09c-0.01-0.07,0.05-0.09,0.17-0.13c0.2-0.04,0.54-0.15,0.68-0.37
			c0.12-0.19,0.2-0.47,0.15-0.89c-0.09-0.73-0.18-1.47-0.27-2.2c-0.01-0.09-0.06-0.12-0.18-0.11l-3.97,0.56
			c-0.09,0.01-0.13,0.03-0.12,0.12c0.08,0.59,0.2,1.41,0.3,2c0.12,0.76,0.16,0.94,0.43,1.11c0.1,0.06,0.16,0.08,0.17,0.14
			c0.01,0.06-0.03,0.08-0.1,0.09c-0.09,0.01-0.34-0.03-0.82,0c-0.44,0.02-0.78,0.07-1,0.08c-0.16,0.01-0.25,0.01-0.26-0.06
			c-0.01-0.09,0.09-0.12,0.23-0.15c0.31-0.07,0.81-0.19,0.8-0.95c-0.01-0.37-0.23-1.93-0.26-2.18c-0.01-0.07-0.04-0.1-0.14-0.08
			l-1.22,0.17c-1.22,0.17-2.24,0.32-2.9,0.45c-0.64,0.13-0.93,0.34-0.92,0.73c0,0.19,0.02,0.44,0.03,0.6c0,0.13-0.02,0.18-0.08,0.19
			c-0.07,0.01-0.11-0.06-0.13-0.22c-0.11-0.8-0.2-1.7-0.21-1.77l-0.02-0.13c-0.05-0.29-0.18-0.93-0.22-1.27
			c-0.02-0.16,0-0.23,0.08-0.25c0.04-0.01,0.08,0.02,0.11,0.15c0.03,0.14,0.07,0.27,0.11,0.36c0.13,0.29,0.36,0.36,1,0.31
			c0.62-0.04,1.63-0.17,2.98-0.36L1018.71,369.83z"/>
		<path class="st0" d="M1019.78,386.72c2.26,0.08,2.67,0.1,3.13,0.09c0.49-0.01,0.75-0.15,0.83-0.46c0.05-0.16,0.07-0.35,0.07-0.45
			c0-0.06,0.03-0.11,0.09-0.11c0.09,0,0.11,0.08,0.11,0.24c-0.02,0.48-0.1,1.39-0.1,1.46c0,0.07,0.01,0.99-0.01,1.42
			c-0.01,0.16-0.04,0.23-0.12,0.23c-0.06,0-0.08-0.06-0.08-0.12c0-0.1-0.01-0.19-0.03-0.37c-0.06-0.39-0.3-0.52-0.81-0.57
			c-0.46-0.05-0.87-0.06-3.13-0.15l-2.55-0.1c-1.39-0.05-2.54-0.1-3.15-0.05c-0.42,0.03-0.74,0.1-0.82,0.54
			c-0.04,0.2-0.08,0.51-0.08,0.59c-0.01,0.13-0.05,0.17-0.09,0.17c-0.07,0-0.11-0.06-0.11-0.22c0.03-0.8,0.11-1.73,0.11-1.8
			c0-0.07-0.01-0.99,0.01-1.42c0.01-0.16,0.04-0.23,0.12-0.23c0.04,0,0.09,0.03,0.08,0.16c0,0.09,0,0.25,0.03,0.38
			c0.05,0.29,0.38,0.39,0.8,0.47c0.61,0.1,1.75,0.14,3.14,0.19L1019.78,386.72z"/>
		<path class="st0" d="M1016.86,394.22c5.16,0.9,3.3,0.61,6.07,1.07c0.56,0.1,0.71,0.17,0.69,0.28c-0.02,0.11-0.38,0.3-0.54,0.42
			c-0.28,0.17-2.95,1.9-5.7,3.69c-1.76,1.15-3.78,2.4-4.33,2.78l7.29,1.11c0.93,0.15,1.26,0.1,1.46-0.32
			c0.1-0.25,0.16-0.47,0.18-0.6c0.03-0.16,0.08-0.19,0.14-0.18c0.09,0.01,0.08,0.13,0.05,0.31c-0.11,0.64-0.27,1.32-0.3,1.48
			c-0.03,0.16-0.07,0.64-0.17,1.22c-0.03,0.16-0.06,0.25-0.14,0.24c-0.06-0.01-0.08-0.07-0.07-0.18c0.01-0.12,0.01-0.2,0.01-0.38
			c-0.02-0.42-0.21-0.55-1.2-0.73l-8.34-1.48c-0.94-0.16-1.01-0.21-0.99-0.31c0.02-0.11,0.21-0.26,1.1-0.88
			c0.17-0.13,2.63-1.82,4.53-3.05c2.08-1.35,4.16-2.65,4.75-3.02l-6.88-1.01c-1.18-0.18-1.57-0.1-1.76,0.27
			c-0.12,0.26-0.19,0.57-0.21,0.7c-0.01,0.07-0.05,0.11-0.11,0.1c-0.09-0.01-0.1-0.11-0.07-0.28c0.14-0.82,0.28-1.38,0.31-1.51
			c0.02-0.13,0.08-0.74,0.2-1.38c0.02-0.14,0.05-0.23,0.15-0.21c0.06,0.01,0.08,0.06,0.07,0.13c-0.02,0.11-0.05,0.38-0.02,0.6
			c0.04,0.38,0.44,0.52,1.74,0.75L1016.86,394.22z"/>
		<path class="st0" d="M1015.83,410.7c2.13,0.77,2.51,0.91,2.96,1.04c0.47,0.14,0.72,0.15,0.98-0.26c0.07-0.1,0.17-0.33,0.21-0.45
			c0.03-0.1,0.08-0.14,0.14-0.12c0.08,0.03,0.08,0.11,0.03,0.26c-0.22,0.61-0.58,1.46-0.6,1.53c-0.06,0.16-0.33,1.04-0.63,1.86
			c-0.49,1.35-1.28,3.89-3.55,4.9c-0.96,0.42-2.32,0.65-3.95,0.06c-1.72-0.63-2.78-1.82-3.31-2.87c-0.4-0.81-0.91-2.38-0.06-4.71
			c0.21-0.59,0.52-1.29,0.77-1.87c0.26-0.59,0.47-1.03,0.49-1.1c0.01-0.03,0.09-0.26,0.18-0.55c0.1-0.27,0.19-0.6,0.26-0.8
			c0.05-0.15,0.11-0.21,0.19-0.18c0.04,0.01,0.07,0.06,0.03,0.17c-0.04,0.15-0.07,0.27-0.08,0.4c-0.04,0.29,0.23,0.47,0.61,0.67
			c0.55,0.28,1.63,0.67,2.94,1.15L1015.83,410.7z M1013.94,411.31c-1.45-0.53-2.71-0.97-2.97-1.05c-0.35-0.11-0.9-0.28-1.09-0.23
			c-0.32,0.08-0.8,0.51-1.39,2.12c-0.46,1.27-0.42,2.61,0.09,3.71c0.44,0.96,1.61,1.82,2.86,2.28c1.73,0.63,3.12,0.29,3.91-0.06
			c1.82-0.79,2.57-2.28,3.17-3.9c0.1-0.27,0.24-0.79,0.23-0.92c-0.01-0.14-0.06-0.21-0.21-0.26c-0.46-0.18-1.85-0.69-2.9-1.07
			L1013.94,411.31z"/>
		<path class="st0" d="M1010.06,424.6c2.01,1.04,2.37,1.23,2.8,1.42c0.45,0.2,0.74,0.19,0.95-0.06c0.11-0.12,0.21-0.28,0.26-0.37
			c0.03-0.05,0.08-0.09,0.13-0.06c0.08,0.04,0.07,0.12-0.01,0.26c-0.22,0.43-0.68,1.22-0.71,1.28c-0.03,0.06-0.42,0.89-0.62,1.29
			c-0.07,0.14-0.13,0.19-0.21,0.15c-0.05-0.03-0.05-0.09-0.02-0.14c0.05-0.09,0.07-0.17,0.13-0.34c0.12-0.38-0.05-0.6-0.49-0.86
			c-0.4-0.24-0.76-0.43-2.77-1.47l-2.27-1.18c-1.24-0.64-2.25-1.17-2.83-1.39c-0.39-0.16-0.72-0.23-0.97,0.13
			c-0.12,0.17-0.29,0.42-0.33,0.5c-0.06,0.12-0.12,0.13-0.16,0.11c-0.06-0.03-0.08-0.1,0-0.25c0.37-0.71,0.84-1.51,0.87-1.58
			s0.42-0.9,0.62-1.28c0.07-0.14,0.13-0.19,0.21-0.15c0.04,0.02,0.06,0.07,0,0.18c-0.04,0.08-0.1,0.23-0.13,0.36
			c-0.08,0.28,0.17,0.51,0.52,0.76c0.51,0.34,1.52,0.87,2.76,1.52L1010.06,424.6z"/>
		<path class="st0" d="M1003.53,431c0.04-0.06,0.03-0.12-0.01-0.19l-1.64-2.16c-0.23-0.31-0.48-0.57-0.69-0.71
			c-0.24-0.16-0.5-0.01-0.64,0.2c-0.02,0.04-0.05,0.07-0.07,0.11c-0.08,0.12-0.13,0.14-0.18,0.11c-0.07-0.05-0.02-0.17,0.05-0.28
			c0.2-0.29,0.56-0.75,0.65-0.88c0.09-0.13,0.5-0.82,0.88-1.38c0.1-0.16,0.18-0.21,0.25-0.16c0.05,0.03,0.03,0.11-0.04,0.22
			c-0.06,0.08-0.12,0.2-0.17,0.3c-0.3,0.6-0.01,1.15,0.45,1.77l5.63,7.78c0.3,0.41,0.34,0.51,0.29,0.58
			c-0.05,0.07-0.14,0.08-0.61-0.03c-0.58-0.13-6.82-1.59-9.15-2.1c-1.36-0.29-1.79-0.07-2.03,0.13c-0.18,0.14-0.32,0.32-0.39,0.42
			c-0.05,0.07-0.1,0.12-0.16,0.08c-0.07-0.05-0.02-0.17,0.07-0.31c0.12-0.18,0.71-1.06,1.3-1.87c0.17-0.22,0.26-0.35,0.33-0.3
			c0.05,0.03,0.05,0.08,0.03,0.14c-0.02,0.09,0.03,0.23,0.28,0.29l3.71,0.88c0.06,0.01,0.1,0,0.15-0.06L1003.53,431z
			 M1002.32,433.73c-0.04,0.06,0,0.08,0.05,0.11l4.02,1.05c0.22,0.06,0.26,0,0.12-0.18l-2.53-3.25c-0.04-0.06-0.08-0.06-0.11-0.02
			L1002.32,433.73z"/>
	</g>
	<g>
		<path class="st1" d="M948.72,382.37l-1.42,12.42h1.35c0.84-6.69,5.86-10.42,11.52-10.42h2.83v41.57c0,0.71-0.19,1.22-0.64,1.55
			c-0.45,0.26-1.16,0.39-1.99,0.39v1.42h16.73v-1.42c-2,0-2.7-0.64-2.7-2v-41.44h2.9c5.6,0,10.62,3.8,11.52,10.49h1.35l-1.42-12.55
			H948.72L948.72,382.37z"/>
	</g>
	<g>
		<path class="st1" d="M907.74,429.18h7.36v-1.35c-2,0-2.65-1.03-2.65-2v-37.3l18.84,40.66h10.71v-43.63c0-0.97,0.71-2,2.71-2v-1.35
			h-7.36v1.35c2,0,2.65,0.65,2.65,2v35.76l-17.94-39.11h-14.33v1.35c1.61,0,2.71,1.23,2.71,2.97v39.3c0,1.35-0.71,2-2.71,2
			L907.74,429.18L907.74,429.18z"/>
	</g>
	<g>
		<path class="st1" d="M885.7,429.21h16.79v-1.36c-2,0-2.71-1.03-2.71-2v-40.3c0-0.97,0.71-2,2.71-2v-1.36H885.7v1.36
			c2,0,2.71,0.65,2.71,2v40.3c0,1.36-0.71,2-2.71,2V429.21z"/>
	</g>
	<g>
		<path class="st1" d="M850.81,405.59c0-13.8,3.78-22.31,9.45-22.31c5.61,0,9.39,8.51,9.39,22.31c0,13.87-3.78,22.31-9.39,22.31
			C854.59,427.9,850.81,419.45,850.81,405.59z M839.65,405.59c0,14.69,8.19,23.57,20.61,23.57c12.35,0,20.54-8.89,20.54-23.57
			c0-14.68-8.19-23.57-20.54-23.57C847.85,382.02,839.65,390.9,839.65,405.59z"/>
	</g>
	<g>
		<path class="st1" d="M815.89,407.67h-2.25v-23.36h2.25c5.73,0,9.59,3.6,9.59,11.33C825.48,403.42,821.62,407.67,815.89,407.67z
			 M799.61,429.16h16.73v-1.35c-2,0-2.7-1.03-2.7-2v-16.15h2.25c12.61,0,20.98-5.47,20.98-14.03c0-8.5-8.37-13.32-20.98-13.32
			h-16.28v1.35c2,0,2.7,0.64,2.7,2v40.16c0,1.35-0.71,2-2.7,2L799.61,429.16L799.61,429.16z"/>
	</g>
	<g>
		<path class="st1" d="M738.33,411.71l7.85-21.56l6.89,21.56H738.33z M754.23,429.18h18.6v-1.35c-1.99,0-2.96-1.03-3.35-2
			l-13.96-43.5h-1.35c-1.87,1.03-6.88,2-11.78,2.38v1.35c1.8,0,2.19,0.58,2.58,1.67l-13.77,38.1c-0.39,0.97-0.71,2-2.7,2v1.35h8.17
			v-1.35c-2,0-3.8-0.64-3.35-2l4.05-11.26h16.54l3.67,11.26c0.52,1.35-1.29,2-3.35,2L754.23,429.18L754.23,429.18z"/>
	</g>
	<g>
		<path class="st1" d="M684.1,429.17h16.73v-1.35c-2,0-2.77-0.58-2.77-1.93v-19.69h14.41v20.27c0,0.97-0.96,1.35-2.64,1.35v1.35
			h16.73v-1.35c-1.99,0-2.7-0.58-2.7-1.93v-40.8c0-0.97,0.96-1.42,2.64-1.42v-1.35h-16.73v1.35c2.06,0,2.7,0.64,2.7,2v18.53h-14.41
			v-19.11c0-0.97,1.03-1.42,2.7-1.42v-1.35h-16.73v1.35c2,0,2.7,0.64,2.7,2v40.8c0,0.97-0.97,1.35-2.64,1.35L684.1,429.17
			L684.1,429.17z"/>
	</g>
	<g>
		<path class="st1" d="M683.26,414.65c-2.81,3.88-6.94,7.01-12.26,7.01c-9.63,0-13.64-10.38-13.64-20.14c0-6.69,1.88-17.2,9.01-17.2
			c6.19,0,9.7,7.88,11.95,13.82h2.56L680.51,386c-3.75-2.19-9.26-3.63-14.07-3.63c-12.57,0-19.95,9.76-19.95,23.33
			c0,13.51,7.19,23.46,19.77,23.46c9.63,0,16.33-5.88,18.26-14.51L683.26,414.65L683.26,414.65z"/>
	</g>
	<g>
		<path class="st1" d="M609.69,429.17h33.66l1.42-12.42h-1.35c-0.84,6.69-5.86,10.42-11.52,10.42h-8.24v-42.09
			c0-0.97,1.03-1.42,2.7-1.42v-1.35h-16.73v1.35c2,0,2.7,0.64,2.7,2v40.8c0,0.97-0.97,1.35-2.64,1.35V429.17z"/>
	</g>
	<g>
		<path class="st1" d="M585.92,429.18c10.19,0,17.64-6.37,17.64-16.55V385.5c0-0.96,0.7-1.97,2.67-1.97v-1.34h-9.29v1.34
			c1.97,0,4.01,0.64,4.01,1.97v28.46c0,7.45-5.03,12.61-11.52,12.61c-6.3,0-10.57-4.78-10.57-12.61V385.5
			c0-0.96,2.04-1.97,4.01-1.97v-1.34h-17.89v1.34c1.97,0,2.67,0.64,2.67,1.97v27.25C567.65,422.88,575.67,429.18,585.92,429.18
			L585.92,429.18z"/>
	</g>
	<g>
		<path class="st1" d="M521.89,429.16h16.73v-1.35c-1.99,0-2.77-0.58-2.77-1.93v-16.92l0.39-0.39l11.78,16.47
			c1.16,1.67,0.77,2.77-0.97,2.77v1.35h19.56v-1.35c-1.61,0-3.15-0.77-3.99-1.93l-18.66-25.93l12.74-14.09
			c1.22-1.35,3.54-2.19,4.83-2.19v-1.35h-8.62v1.35c2.32,0,2.12,1.03,0.52,2.9l-17.57,19.31v-20.34c0-0.97,0.77-1.87,2.7-1.87v-1.35
			h-16.73v1.35c1.99,0,2.7,0.64,2.7,2v40.8c0,0.97-0.96,1.35-2.64,1.35V429.16z"/>
	</g>
	<g>
		<g>
			<path class="st2" d="M780.11,70.23c1.25-21.29,4.39-41.32,15.96-41.32c6.58,0,11.27,5.94,11.27,14.08
				C807.34,55.82,795.76,64.9,780.11,70.23L780.11,70.23z M814.86,371.23h81.4v-6.57c-10.02,0-13.15-5.01-13.15-9.71v-154.5
				c0-53.21-26.93-66.99-53.85-66.99c-25.36,0-41.64,12.21-49.77,32.87V97.14c0-5.01,0.31-10.65,0.31-16.59
				c21.91-5.96,37.25-17.54,37.25-36c0-13.46-7.83-25.36-32.55-25.36c-31.31,0-51.35,19.41-57.92,53.53
				c-47.9-7.52-105.5-33.81-151.52-33.81c-33.81,0-59.17,14.4-59.17,43.51c0,36.63,39.13,43.2,61.99,28.8
				c-8.45-12.21-5.32-46.02,27.86-46.02c21.6,0,74.82,14.4,119.27,18.47c-0.32,4.07-0.62,8.77-0.62,13.46v257.81
				c0,6.57-3.45,9.71-13.15,9.71v6.57h81.39v-6.57c-9.7,0-13.14-5.01-13.14-9.71V205.46c0-33.81,15.02-55.72,27.86-55.72
				c8.45,0,20.36,9.7,20.36,45.71v159.5c0,6.57-3.14,9.71-12.84,9.71L814.86,371.23L814.86,371.23z"/>
		</g>
	</g>
	<g>
		<g>
			<path class="st2" d="M603.12,310.45c-9.82,15.85-21.53,30.96-33.6,30.96c-16.24,0-37.37-26.81-37.37-80.04
				c0-43.41,14.34-74.74,34.35-74.74c18.49,0,36.62,26.43,36.62,67.19V310.45L603.12,310.45z M603.12,206.63
				c-9.82-24.91-29.07-39.64-58.89-39.64c-46.44,0-78.9,36.25-78.9,100.42c0,56.63,25.67,103.44,73.99,103.44
				c27.18,0,46.82-14.72,63.8-39.26v2.26c-0.39,21.53,15.47,37,42.28,37c22.27,0,38.88-10.18,54.74-25.29l-6.04-4.53
				c-4.15,2.64-9.82,4.9-14.34,4.9c-8.3,0-9.82-7.17-9.82-13.59V92.24h-4.15c-5.67,0-15.11,3.4-26.05,5.67
				c-10.19,1.52-25.29,2.27-40.01,2.27h-12.46v7.55c9.44,0,15.86,6.04,15.86,15.47V206.63L603.12,206.63z"/>
		</g>
	</g>
	<g>
		<g>
			<path class="st2" d="M460.3,362.7c18.72,4.32,31.32,16.2,31.32,33.48c0,11.16-5.04,18-12.6,18
				C464.62,414.18,461.38,388.26,460.3,362.7z M396.22,318.42c-5.76,14.76-15.84,24.84-32.4,24.84c-7.92,0-22.32-2.52-22.32-21.6
				c0-26.28,26.64-45.72,54.72-48.24V318.42L396.22,318.42z M365.62,176.94c-21.96,0-51.48,5.04-69.48,19.08l0.36,57.6h15.84
				c6.84-33.84,23.4-65.52,50.4-65.52c26.64,0,30.96,31.68,32.76,75.24c-51.12,0-117.72,5.4-117.72,56.88
				c0,28.08,19.8,51.12,55.08,51.12c21.96,0,46.8-9,63.36-35.28c0,9,0.72,17.28,2.16,25.2c-47.88,24.12-78.84,79.2-123.48,79.2
				c-37.44,0-41.04-38.88-31.32-52.92c-8.28-5.04-18.72-8.28-28.8-8.28c-21.96,0-42.48,12.96-42.48,41.4
				c0,33.48,29.16,50.04,65.16,50.04c73.08,0,111.96-68.76,163.44-97.2c9.36,33.12,31.68,51.84,64.44,51.84
				c28.44,0,37.44-13.68,37.44-30.24c0-22.32-17.28-38.52-42.84-43.56c0-5.4,0-11.16,0-15.84v-69.12
				C459.94,213.3,422.86,176.94,365.62,176.94L365.62,176.94z"/>
		</g>
	</g>
	<g>
		<path class="st2" d="M180.42,112.97c46.8,0,114.12,52.2,187.2,52.2c37.8,0,59.04-13.68,59.04-38.52
			c0-23.76-19.44-39.96-54.72-32.4c8.64,21.96-3.6,45-35.28,45c-39.96,0-97.21-37.44-160.57-37.44c-56.88,0-95.76,29.88-95.76,70.56
			c0,75.6,132.48,76.68,132.48,145.81c0,24.48-17.28,41.76-42.84,41.76c-41.76,0-61.92-45.36-74.52-79.56H80.34l2.16,69.84
			c21.96,12.96,53.28,20.88,84.6,20.88c60.84,0,101.53-30.24,101.53-78.48c0-86.76-132.48-95.76-132.48-144.72
			C136.14,129.9,153.78,112.97,180.42,112.97z"/>
	</g>
</g>
</svg>
